<svg width="346" height="37" viewBox="0 0 346 37" fill="none" xmlns="http://www.w3.org/2000/svg">
<path fill-rule="evenodd" clip-rule="evenodd" d="M54.4113 35.7867H63.2204V24.8446H67.8622L73.433 35.7867H82.6945L75.9696 23.1218L76.5809 22.758C77.0764 22.4602 77.5331 22.0973 77.9397 21.6783C78.5361 21.0903 79.0817 20.4489 79.57 19.7614C80.1823 18.8668 80.6525 17.8756 80.9627 16.8258C81.3554 15.5686 81.5504 14.2537 81.5401 12.9319C81.6131 9.73705 80.4026 6.65522 78.2 4.42813C75.9732 2.13929 73.1464 0.994868 69.7195 0.994868H54.4113V35.7867ZM72.7314 12.9195C72.7552 13.8537 72.4021 14.7556 71.7576 15.4065C71.0845 16.0797 70.177 16.4389 69.244 16.4014H63.2197V9.46374H69.244C70.1748 9.42576 71.0811 9.77999 71.7576 10.4463C72.4026 11.0911 72.7562 11.9892 72.7314 12.9195ZM93.5887 23.6071C93.5561 22.2423 94.0306 20.9171 94.9134 19.9072C95.67 18.9473 96.8002 18.3909 97.9933 18.3909C99.1863 18.3909 100.317 18.9473 101.073 19.9072C101.956 20.9171 102.43 22.2423 102.398 23.6071C102.43 24.9718 101.956 26.2971 101.073 27.3069C100.317 28.2668 99.1863 28.8233 97.9933 28.8233C96.8002 28.8233 95.67 28.2668 94.9134 27.3069C94.0306 26.2971 93.5561 24.9718 93.5887 23.6071ZM110.505 23.6071C110.505 20.2263 109.278 17.2703 106.825 14.7392C101.938 9.6765 94.0373 9.6765 89.1504 14.7392C86.6894 17.2706 85.4591 20.2265 85.4593 23.6071C85.4595 26.9876 86.6899 29.9436 89.1504 32.475C94.0373 37.5377 101.938 37.5377 106.825 32.475C109.279 29.9436 110.506 26.9876 110.506 23.6071H110.505ZM113.744 23.6071C113.744 26.9879 114.975 29.9439 117.435 32.475C119.755 34.9462 122.947 36.3191 126.267 36.2731C127.457 36.2758 128.64 36.0918 129.777 35.7272C130.731 35.4418 131.651 35.0428 132.518 34.5383C133.211 34.111 133.863 33.6157 134.466 33.0592C134.883 32.6978 135.269 32.3 135.621 31.8703C135.787 31.6355 135.915 31.4536 136.005 31.3245L131.385 26.1061L130.909 26.7368C130.451 27.3144 129.885 27.7891 129.245 28.1321C128.484 28.5884 127.621 28.8269 126.743 28.8234C125.433 28.858 124.171 28.3162 123.266 27.3313C122.337 26.3366 121.835 24.9933 121.873 23.6071C121.835 22.2209 122.337 20.8777 123.266 19.883C124.171 18.8982 125.433 18.3565 126.742 18.3908C127.644 18.3939 128.527 18.6625 129.289 19.1656C129.864 19.4943 130.39 19.9069 130.852 20.3908C131.041 20.6276 131.219 20.8745 131.384 21.1303L136.003 15.914L135.641 15.4045C135.293 14.9342 134.89 14.5105 134.441 14.143C133.83 13.6186 133.187 13.1363 132.516 12.6991C131.653 12.159 130.724 11.7428 129.754 11.4616C125.381 10.1311 120.658 11.3866 117.434 14.7368C114.974 17.2698 113.744 20.2266 113.744 23.6071ZM155.48 21.8843L163.813 11.4274H154.777L148.052 19.8949V0.994868H140.172V35.7867H148.052V29.5756L150.136 27.1009L155.48 35.7867H164.063L155.48 21.8843ZM170.065 0L164.97 12.1797L169.838 15.1639L176.564 3.97947L170.065 0ZM187.909 11.4274H180.029V35.7867H187.909V23.6071C187.909 22.1515 188.256 21.003 188.951 20.1618C189.609 19.338 190.593 18.8731 191.623 18.9004C192.515 18.8732 193.371 19.2652 193.955 19.9678C194.559 20.6794 194.861 21.6499 194.861 22.8791V35.7867H202.742V21.3765C202.742 18.2708 201.964 15.7557 200.409 13.831C198.948 11.9511 196.731 10.8841 194.408 10.9432C193.163 10.9455 191.94 11.2797 190.854 11.9138C189.722 12.5608 188.994 13.0744 188.669 13.4545C188.345 13.8346 188.091 14.1537 187.909 14.4117V11.4274ZM211.779 0L206.684 12.1797L211.552 15.1639L218.278 3.97947L211.779 0ZM238.433 35.7867C241.89 35.7867 244.724 34.7677 246.936 32.7296C249.148 30.6915 250.253 28.3138 250.253 25.5965C250.263 24.4874 250.051 23.3883 249.63 22.3696C249.296 21.5166 248.825 20.729 248.237 20.0404C247.71 19.462 247.117 18.9528 246.471 18.5239C246.025 18.2098 245.559 17.9262 245.078 17.6749C244.814 17.5535 244.606 17.4605 244.455 17.3959L244.886 17.1533C245.269 16.9301 245.622 16.6569 245.939 16.3405C246.373 15.9223 246.778 15.4723 247.15 14.9938C247.612 14.3711 247.964 13.6689 248.192 12.9192C248.481 12.0408 248.626 11.1181 248.622 10.1896C248.622 7.71479 247.603 5.56353 245.565 3.73578C243.527 1.90804 240.84 0.994174 237.503 0.994174H222.898V35.786H238.433V35.7867ZM231.707 28.3384V21.3765H237.731C238.664 21.339 239.572 21.6982 240.245 22.3713C241.544 23.7537 241.544 25.9626 240.245 27.345C239.572 28.0181 238.664 28.3773 237.731 28.3398H231.707V28.3384ZM236.577 8.4675C237.384 8.4242 238.174 8.71663 238.774 9.2803C239.327 9.84741 239.624 10.6323 239.589 11.4398C239.624 12.2473 239.327 13.0321 238.774 13.5993C238.174 14.1629 237.384 14.4554 236.577 14.4121H231.707V8.4675H236.577ZM262.777 0.994868H254.897V35.7867H262.777V0.994868ZM275.527 23.6074C275.495 22.2425 275.969 20.9171 276.852 19.9072C277.609 18.9472 278.739 18.3907 279.932 18.3907C281.125 18.3907 282.255 18.9472 283.012 19.9072C283.895 20.917 284.369 22.2423 284.337 23.6071C284.37 24.972 283.895 26.2974 283.012 27.3073C282.255 28.2673 281.125 28.8239 279.932 28.8239C278.739 28.8239 277.609 28.2673 276.852 27.3073C275.969 26.2974 275.495 24.972 275.527 23.6071V23.6074ZM292.443 23.6074C292.443 20.2266 291.216 17.2707 288.763 14.7395C283.876 9.67685 275.976 9.67685 271.089 14.7395C268.628 17.2709 267.397 20.2269 267.397 23.6074C267.397 26.988 268.628 29.9439 271.089 32.4753C275.976 37.538 283.876 37.538 288.763 32.4753C291.216 29.9437 292.443 26.9876 292.443 23.6071V23.6074ZM295.683 23.6075C295.683 26.9882 296.913 29.9442 299.374 32.4753C301.693 34.9463 304.886 36.3191 308.205 36.2731C309.395 36.2759 310.578 36.0919 311.715 35.7272C312.67 35.4417 313.59 35.0428 314.457 34.5383C315.15 34.1111 315.802 33.6158 316.404 33.0592C316.821 32.6978 317.207 32.3 317.559 31.8703C317.725 31.6355 317.853 31.4536 317.944 31.3245L313.323 26.1061L312.848 26.7368C312.389 27.3143 311.823 27.789 311.183 28.1321C310.422 28.5884 309.559 28.8269 308.681 28.8234C307.372 28.8577 306.11 28.316 305.205 27.3313C304.276 26.3366 303.774 24.9933 303.812 23.6071C303.774 22.2209 304.276 20.8776 305.205 19.8829C306.11 18.8983 307.372 18.3565 308.681 18.3908C309.583 18.3939 310.466 18.6625 311.228 19.1656C311.803 19.4942 312.329 19.9068 312.791 20.3908C312.98 20.6276 313.158 20.8744 313.323 21.1303L317.943 15.914L317.58 15.4045C317.232 14.9341 316.829 14.5104 316.38 14.143C315.769 13.6185 315.126 13.1362 314.455 12.6991C313.592 12.159 312.663 11.7427 311.693 11.4616C307.319 10.131 302.597 11.3865 299.373 14.7367C296.913 17.2698 295.682 20.2265 295.683 23.6071V23.6075ZM337.418 21.8846L345.753 11.4278H336.716L329.991 19.8949V0.994868H322.111V35.7867H329.991V29.5756L332.074 27.1009L337.418 35.7867H346L337.418 21.8846Z" fill="black"/>
<path fill-rule="evenodd" clip-rule="evenodd" d="M0 0H33.4839V34.879H0V0Z" fill="#FF0000"/>
<path fill-rule="evenodd" clip-rule="evenodd" d="M21.2957 2.79031L6.9758 18.2467H15.9069L10.4612 32.0887L26.5081 13.4136H17.577L21.2957 2.79031Z" fill="white"/>
</svg>
